<?xml version="1.0" standalone="no"?>
<!DOCTYPE svg PUBLIC "-//W3C//DTD SVG 20010904//EN"
 "http://www.w3.org/TR/2001/REC-SVG-20010904/DTD/svg10.dtd">
<svg version="1.0" xmlns="http://www.w3.org/2000/svg"
 width="1024.000000pt" height="1024.000000pt" viewBox="0 0 1024.000000 1024.000000"
 preserveAspectRatio="xMidYMid meet">
<metadata>
Created by potrace 1.11, written by Peter Selinger 2001-2013
</metadata>
<g transform="translate(0.000000,1024.000000) scale(0.100000,-0.100000)"
fill="#000000" stroke="none">
<path d="M1579 8653 c-13 -16 -12 -17 4 -4 9 7 17 15 17 17 0 8 -8 3 -21 -13z"/>
<path d="M3867 8173 c-28 -14 -53 -36 -60 -51 -6 -15 -14 -29 -17 -32 -11 -11
-38 -67 -50 -105 -7 -22 -21 -57 -31 -77 -20 -38 -17 -99 4 -95 6 1 13 -7 15
-17 3 -13 0 -17 -11 -13 -16 6 -36 -30 -86 -156 -34 -85 -41 -147 -16 -147 9
0 14 -10 14 -27 -1 -65 13 -121 32 -126 11 -3 19 -13 19 -22 0 -25 46 -105 56
-97 4 4 3 0 -4 -9 -14 -18 -6 -151 9 -157 5 -2 6 -8 3 -13 -3 -6 -1 -15 4 -22
9 -11 16 -47 29 -137 2 -19 7 -42 10 -50 6 -16 9 -27 11 -47 2 -9 11 -8 37 4
33 16 40 28 37 63 -1 8 -2 35 -3 60 -1 25 -5 47 -9 50 -10 7 -16 72 -8 86 7
11 -17 91 -32 109 -5 6 -11 27 -13 47 -2 20 -11 44 -21 53 -9 10 -15 24 -11
33 8 21 -5 58 -15 42 -15 -25 -27 0 -23 47 3 35 0 53 -12 68 -9 11 -14 14 -10
8 10 -21 -3 -15 -15 6 -11 21 -3 54 11 45 5 -3 9 3 9 13 0 11 5 24 12 31 9 9
9 12 0 12 -19 0 -14 29 8 42 11 7 20 20 20 30 0 9 5 20 10 23 6 3 10 11 10 16
0 6 -3 8 -7 6 -5 -3 -9 6 -9 19 -1 13 2 24 7 24 5 0 6 12 3 26 -5 19 -4 25 5
20 14 -9 32 35 24 62 -2 11 0 23 6 26 6 4 11 0 11 -11 0 -15 2 -16 10 -3 5 8
7 23 4 33 -7 22 5 59 17 52 5 -4 9 0 9 8 0 8 7 20 15 27 8 7 15 27 15 46 0 31
21 64 41 64 6 0 8 4 4 9 -3 5 -1 12 5 16 5 3 10 1 10 -6 0 -10 3 -10 12 -1 16
16 29 15 22 -2 -4 -10 3 -16 23 -18 22 -2 32 -12 48 -45 11 -23 29 -49 40 -57
11 -9 15 -16 10 -16 -6 0 -10 -19 -10 -42 0 -25 -6 -43 -13 -46 -10 -3 -10 -7
-1 -18 9 -11 9 -18 -1 -29 -7 -8 -8 -15 -3 -15 6 0 9 -24 9 -52 -1 -29 2 -58
6 -64 10 -14 -1 -94 -13 -94 -15 0 -10 -50 6 -56 8 -4 15 -12 15 -20 0 -13 24
-19 57 -15 17 2 23 -13 12 -29 -8 -12 -12 -12 -16 -2 -9 22 -33 13 -33 -12 0
-40 10 -56 49 -76 46 -23 67 -45 51 -55 -6 -4 -23 4 -38 16 -21 19 -23 19 -9
3 9 -11 17 -25 17 -30 0 -5 8 -14 18 -20 10 -7 24 -31 31 -55 7 -24 22 -64 34
-89 11 -25 20 -48 19 -52 -1 -4 16 -12 38 -18 49 -13 51 -27 5 -36 -19 -3 -35
-11 -35 -16 0 -5 9 -6 21 -3 18 6 20 4 11 -11 -8 -14 -6 -21 6 -31 13 -9 13
-12 3 -13 -10 0 -11 -3 -2 -14 8 -10 9 -16 1 -21 -18 -11 -11 -33 22 -67 32
-32 32 -33 10 -36 l-23 -4 24 -24 c29 -29 38 -65 22 -88 -11 -14 -15 -9 -30
31 -10 27 -20 51 -24 54 -10 11 -53 -10 -45 -22 4 -8 9 -7 15 2 6 10 11 6 19
-15 16 -43 -5 -88 -26 -55 -3 6 -14 -7 -25 -30 -10 -23 -24 -41 -31 -42 -7 0
1 -6 17 -12 17 -7 39 -18 50 -24 20 -13 20 -13 -4 -33 -29 -24 -47 -25 -60 -3
-15 27 -36 -60 -21 -88 9 -16 8 -23 -3 -32 -27 -22 -90 -136 -67 -122 6 4 10
-12 10 -39 0 -33 -4 -46 -14 -46 -8 0 -24 -16 -36 -34 -31 -52 -80 -61 -80
-15 0 10 -3 19 -7 20 -5 0 -23 2 -40 3 -18 2 -31 0 -28 -4 6 -9 -19 -20 -44
-20 -29 0 -60 28 -54 50 3 11 10 17 17 13 6 -3 5 0 -3 8 -11 11 -14 11 -18 1
-4 -10 -8 -10 -19 -1 -12 10 -13 6 -8 -22 9 -47 27 -62 76 -64 24 -1 63 -11
87 -22 53 -24 86 -18 141 25 33 27 43 42 69 102 18 41 45 84 69 110 12 13 22
30 22 37 0 7 5 13 11 13 20 0 50 98 50 164 0 11 13 35 28 55 16 20 34 54 41
76 17 54 28 145 18 145 -4 0 -8 15 -8 34 0 18 -9 45 -20 59 -11 14 -20 37 -20
51 0 14 -5 26 -11 26 -6 0 -8 9 -4 20 4 13 -1 30 -14 46 -12 15 -21 35 -21 45
0 10 -11 48 -25 84 -13 36 -22 65 -19 65 3 0 -6 17 -20 37 -14 20 -23 40 -20
44 3 5 -2 22 -11 39 -9 17 -13 35 -10 40 4 6 -7 10 -23 10 -30 0 -47 20 -43
51 1 9 -5 22 -14 29 -8 7 -12 17 -8 23 7 11 11 38 19 127 8 96 10 103 36 125
23 19 24 23 9 33 -14 10 -14 11 2 11 15 1 16 7 11 44 -4 25 -16 51 -30 65 -13
13 -24 30 -24 39 0 9 -15 34 -33 57 -18 23 -38 53 -44 67 -8 19 -26 31 -62 43
-68 22 -117 19 -174 -11z"/>
<path d="M5227 8186 c-8 -9 -22 -16 -29 -16 -7 0 -20 -6 -29 -13 -18 -14 -83
-129 -94 -167 -4 -14 -20 -51 -36 -83 -15 -31 -24 -55 -19 -52 8 5 26 -33 22
-47 -1 -5 1 -7 6 -5 4 1 7 -2 7 -8 0 -5 -4 -9 -10 -8 -14 4 -35 -39 -80 -156
-39 -105 -42 -123 -19 -146 9 -8 14 -22 11 -29 -3 -8 -3 -17 1 -20 3 -4 7 -16
9 -29 2 -12 5 -33 6 -47 6 -39 6 -40 20 -40 8 0 19 -17 25 -38 6 -21 22 -48
34 -62 15 -15 18 -25 10 -28 -15 -5 -15 -35 0 -50 7 -7 8 -12 2 -12 -5 0 -8
-20 -6 -45 2 -25 8 -45 13 -45 5 0 8 -3 7 -7 0 -5 1 -15 4 -23 12 -32 28 -123
28 -156 0 -19 5 -34 10 -34 6 0 10 -6 9 -12 -5 -41 19 -50 56 -23 16 13 19 26
17 87 -2 40 -8 75 -13 79 -6 3 -9 30 -8 60 3 58 -15 135 -32 141 -5 2 -11 22
-12 46 0 23 -5 42 -10 42 -4 0 -5 5 -1 12 4 6 3 8 -4 4 -15 -9 -26 12 -14 27
7 8 6 18 -3 30 -10 13 -14 15 -18 5 -3 -9 -8 -10 -16 -2 -9 8 -9 18 -1 39 12
33 -6 108 -20 84 -6 -9 -12 -5 -21 15 -11 24 -11 30 1 40 21 16 42 56 30 56
-19 0 -10 28 15 44 14 9 22 22 19 30 -3 8 -2 16 3 19 4 3 8 30 7 60 0 31 3 55
7 54 11 -3 60 93 53 104 -9 15 5 61 16 54 6 -3 10 1 10 9 0 8 8 20 18 25 14 7
17 18 14 44 -3 28 1 38 23 55 14 11 26 23 26 26 -2 18 0 19 8 7 8 -12 12 -12
25 -2 14 11 16 11 16 -4 0 -10 3 -15 6 -12 13 12 42 -13 64 -55 12 -23 29 -48
38 -55 13 -9 13 -12 3 -13 -10 0 -11 -4 -3 -12 7 -9 6 -25 -3 -52 -7 -21 -11
-45 -8 -53 3 -8 0 -19 -8 -24 -10 -6 -10 -9 -1 -9 8 0 12 -18 12 -58 0 -32 5
-63 10 -68 7 -7 6 -20 -4 -39 -8 -16 -13 -32 -10 -37 3 -4 0 -8 -5 -8 -16 0
-13 -36 4 -50 8 -7 15 -19 15 -26 0 -13 24 -19 57 -15 17 2 23 -13 12 -29 -8
-12 -12 -12 -16 -2 -2 6 -12 12 -20 12 -12 0 -14 -7 -8 -37 8 -45 12 -53 27
-53 6 0 26 -12 45 -26 27 -20 32 -29 23 -39 -10 -12 -15 -10 -33 8 -12 13 -16
16 -9 7 6 -9 12 -21 12 -26 0 -5 9 -15 20 -22 11 -7 20 -19 20 -27 0 -8 5 -15
10 -15 6 0 10 -14 10 -31 0 -32 37 -109 52 -109 5 0 7 -4 3 -9 -7 -12 61 -35
82 -27 14 6 13 9 -5 29 -11 12 -23 36 -27 52 -9 39 -56 173 -72 205 -7 14 -13
32 -13 40 0 9 -7 26 -16 38 -8 12 -12 27 -9 32 4 6 -7 10 -24 10 -21 0 -31 5
-31 15 0 8 -4 15 -10 15 -5 0 -7 7 -4 15 4 8 2 21 -4 28 -11 14 -9 72 6 134 6
27 6 43 0 45 -12 4 13 88 27 88 6 0 16 9 22 19 10 15 10 21 0 25 -9 3 -9 7 1
14 20 14 4 91 -24 115 -13 11 -24 29 -24 39 0 10 -16 35 -35 57 -19 21 -35 45
-35 53 0 34 -48 56 -146 65 -38 3 -55 1 -67 -11z m-86 -369 c-8 -8 -11 -7 -11
4 0 9 3 19 7 23 4 4 9 2 11 -4 3 -7 -1 -17 -7 -23z"/>
<path d="M4298 7053 c7 -3 16 -2 19 1 4 3 -2 6 -13 5 -11 0 -14 -3 -6 -6z"/>
<path d="M5628 7053 c7 -3 16 -2 19 1 4 3 -2 6 -13 5 -11 0 -14 -3 -6 -6z"/>
<path d="M5668 7037 c-21 -6 -38 -15 -38 -19 0 -5 9 -7 20 -3 16 5 19 3 13
-11 -4 -11 1 -22 12 -30 18 -14 18 -14 0 -14 -14 0 -16 -3 -8 -11 9 -9 9 -16
0 -30 -10 -15 -6 -24 21 -52 37 -39 39 -47 11 -47 -19 0 -19 -1 5 -22 29 -26
38 -63 23 -92 -8 -17 -12 -13 -31 35 -16 39 -27 54 -42 54 -13 0 -20 -8 -21
-25 -2 -20 -1 -21 5 -7 7 17 9 17 21 4 7 -9 11 -28 9 -44 -2 -22 -8 -28 -25
-26 -17 2 -24 -4 -29 -22 -3 -14 -15 -32 -26 -39 -19 -13 -18 -14 11 -21 17
-4 31 -11 31 -16 0 -6 4 -8 9 -4 19 11 23 -17 5 -36 -21 -24 -43 -24 -59 -2
-11 15 -14 13 -23 -21 -8 -27 -8 -45 1 -63 7 -16 7 -27 1 -31 -6 -4 -25 -28
-42 -54 -27 -40 -31 -51 -22 -73 17 -44 12 -58 -39 -114 -52 -56 -83 -65 -89
-23 -2 16 -10 22 -27 22 -13 0 -31 3 -41 7 -11 4 -15 3 -11 -4 7 -12 -14 -23
-42 -23 -28 0 -64 31 -52 43 14 14 14 30 0 21 -7 -4 -20 4 -31 17 -15 20 -17
21 -12 4 4 -11 10 -24 13 -30 3 -5 6 -18 6 -28 3 -29 21 -40 77 -44 29 -2 58
-5 65 -5 7 -1 14 -7 17 -15 10 -24 79 -16 122 15 50 37 58 47 80 102 10 25 24
49 31 53 7 4 13 17 13 27 0 10 6 23 13 27 7 4 26 27 43 50 17 24 33 41 35 38
3 -2 5 4 6 13 0 9 4 37 8 62 3 25 8 54 9 65 3 23 34 75 46 75 10 0 43 118 44
163 1 20 -2 37 -6 37 -4 0 -8 14 -8 30 0 17 -9 49 -21 71 -11 23 -18 43 -15
47 7 6 -13 33 -23 31 -3 -1 -23 -6 -43 -12z"/>
<path d="M3850 6351 c0 -5 5 -13 10 -16 6 -3 10 -2 10 4 0 5 -4 13 -10 16 -5
3 -10 2 -10 -4z"/>
<path d="M5180 6350 c0 -5 5 -10 11 -10 5 0 7 5 4 10 -3 6 -8 10 -11 10 -2 0
-4 -4 -4 -10z"/>
<path d="M3860 5943 c-47 -2 -92 -6 -100 -9 -15 -7 -520 -17 -615 -13 -66 3
-110 3 -230 1 -55 -1 -157 1 -228 4 -106 6 -134 4 -171 -10 -125 -48 -174
-203 -159 -496 2 -25 3 -97 3 -160 1 -133 4 -169 31 -305 46 -230 111 -446
156 -518 13 -21 21 -42 18 -47 -3 -5 0 -7 7 -5 8 3 25 -12 42 -40 30 -47 40
-57 29 -29 -14 37 35 -11 57 -55 16 -33 17 -41 6 -32 -28 23 -18 -1 48 -116
100 -175 284 -392 459 -541 153 -129 277 -217 287 -202 6 10 100 -45 100 -60
0 -5 19 -14 42 -21 48 -13 92 -38 68 -40 -8 0 1 -5 20 -10 70 -20 139 -52 133
-63 -3 -6 -3 -8 2 -4 4 4 14 3 20 -2 11 -9 151 -60 164 -60 3 0 -1 5 -9 11
-24 16 55 1 138 -27 80 -27 118 -30 125 -11 3 7 6 5 6 -5 1 -12 15 -21 44 -28
23 -6 55 -15 71 -21 22 -7 32 -6 38 3 4 7 8 9 8 3 0 -6 39 -11 92 -13 50 -2
99 -7 110 -13 12 -7 18 -6 18 1 0 6 8 10 18 9 39 -4 44 0 37 29 -10 40 -32 60
-68 60 -18 0 -45 5 -62 12 -18 7 -31 7 -33 2 -3 -11 -82 6 -82 18 0 4 -39 6
-87 5 -49 0 -93 3 -100 8 -7 5 -20 4 -31 -2 -16 -9 -21 -7 -25 11 -6 21 -7 21
-25 5 -10 -9 -25 -17 -33 -17 -8 0 -68 27 -134 60 -117 58 -226 106 -313 137
-23 8 -40 19 -36 24 3 5 -3 6 -13 2 -14 -5 -7 -12 32 -29 67 -30 51 -30 -30 1
-73 27 -158 75 -135 75 8 0 2 9 -15 20 -17 11 -24 20 -15 20 20 1 -23 34 -73
56 -26 12 -34 20 -25 26 10 6 9 8 -4 8 -9 0 -42 26 -73 57 -42 43 -58 54 -64
44 -12 -19 -80 45 -137 130 -25 38 -50 67 -55 64 -5 -3 -23 15 -41 41 -47 68
-90 115 -82 89 4 -13 0 -11 -14 8 -11 16 -36 42 -56 59 -20 16 -34 33 -31 38
6 9 -51 90 -64 90 -15 0 -43 52 -46 84 -1 17 -19 58 -39 90 -20 33 -36 66 -36
73 0 7 -9 17 -20 23 -11 6 -27 25 -37 43 -16 31 -35 107 -26 107 2 0 13 -20
24 -45 11 -25 22 -45 24 -45 7 0 -30 88 -74 175 -22 44 -41 90 -41 103 0 13
-5 33 -11 44 -8 15 -8 22 0 27 7 5 6 22 -5 56 -8 28 -13 61 -10 75 2 14 -6 77
-19 140 -32 156 -38 258 -27 433 8 118 14 152 28 168 16 17 16 19 1 19 -10 0
-17 4 -17 8 0 17 46 50 70 51 14 1 61 5 105 9 60 5 86 4 102 -7 18 -10 51 -12
145 -7 68 4 149 6 180 6 32 0 67 4 77 10 21 11 34 11 271 10 85 -1 175 2 200
5 73 10 150 12 150 3 0 -4 -19 -8 -42 -8 -35 -1 -40 -3 -25 -11 10 -6 25 -8
33 -5 24 9 342 18 356 10 7 -4 34 -7 60 -6 26 0 48 -3 48 -8 0 -4 26 -2 58 5
54 13 83 11 162 -10 17 -5 21 -4 12 3 -12 8 168 22 383 28 44 1 100 7 125 13
30 7 71 7 125 1 135 -17 270 -18 351 -4 43 8 88 11 101 8 13 -4 41 1 63 10 22
9 44 15 48 15 4 -1 16 0 27 1 13 1 15 3 6 7 -7 3 -22 14 -33 25 -19 19 -29 20
-271 11 -139 -4 -346 -6 -461 -5 -150 3 -215 0 -232 -8 -17 -10 -44 -10 -116
-1 -51 6 -109 8 -128 5 -22 -4 -73 4 -139 21 -81 21 -109 25 -123 16 -22 -14
-58 -14 -58 -1 0 10 -58 10 -260 3z"/>
<path d="M5854 5941 c-12 -5 -25 -14 -29 -20 -3 -6 -39 -12 -78 -13 l-72 -1
67 -6 c36 -3 69 -9 73 -13 16 -16 -10 -28 -54 -27 -26 1 -56 -3 -66 -9 -18 -9
-17 -10 5 -10 14 0 79 -5 144 -12 102 -10 131 -10 200 3 81 16 181 30 286 42
54 6 55 5 56 -20 1 -14 -2 -25 -8 -25 -5 0 -7 4 -4 9 4 5 -3 7 -15 4 -19 -5
-20 -7 -4 -15 9 -6 31 -7 48 -3 50 10 237 21 237 13 0 -3 15 -2 34 3 28 8 182
0 221 -11 6 -1 48 -2 95 -1 65 1 81 4 72 13 -27 27 -9 27 26 0 20 -17 72 -43
114 -58 43 -16 76 -34 74 -39 -2 -6 48 -23 115 -39 123 -29 131 -35 108 -77
-7 -15 -16 -18 -32 -13 -20 6 -20 5 3 -13 14 -11 36 -26 49 -33 21 -11 23 -10
18 4 -12 31 9 16 61 -44 32 -36 61 -60 73 -60 11 0 29 -5 40 -11 16 -8 18 -14
9 -24 -9 -10 -1 -20 34 -45 29 -19 46 -38 46 -51 0 -22 30 -64 134 -183 83
-96 117 -166 81 -166 -12 0 -15 -10 -13 -44 2 -24 6 -42 9 -40 9 5 37 -62 49
-116 11 -53 13 -154 3 -164 -5 -4 -13 -26 -19 -49 -10 -40 -11 -35 -19 73 -4
63 -8 130 -9 147 -1 39 -26 55 -26 17 0 -13 -6 -35 -14 -47 -14 -21 -27 -81
-31 -142 -1 -16 -5 -46 -9 -65 -4 -24 -3 -29 3 -15 4 11 14 53 21 93 10 56 16
69 23 56 13 -23 0 -126 -25 -193 -11 -31 -22 -58 -24 -60 -2 -2 -13 7 -24 20
-12 14 -18 17 -14 7 6 -16 -30 -98 -44 -98 -4 0 -18 -20 -31 -45 -23 -43 -78
-101 -131 -137 -23 -16 -23 -17 -5 -17 28 -1 65 -29 65 -49 0 -28 -160 -122
-207 -122 -13 0 -13 3 2 26 18 29 15 43 -5 19 -7 -8 -22 -15 -34 -15 -12 0
-40 -13 -62 -29 -21 -16 -66 -37 -99 -46 -33 -10 -65 -25 -71 -33 -7 -9 -16
-12 -24 -7 -8 5 -11 4 -7 -2 4 -6 -11 -18 -34 -27 -56 -23 -256 -7 -389 30
-52 15 -103 27 -112 26 -10 0 -18 3 -18 8 0 26 -105 -47 -213 -147 -43 -40
-86 -73 -94 -73 -21 0 -71 -38 -159 -121 -64 -61 -155 -119 -185 -119 -7 0 -9
10 -6 25 4 25 4 25 -20 10 -48 -32 -128 -77 -194 -110 -37 -19 -71 -40 -75
-47 -6 -10 -4 -11 7 0 7 6 19 12 27 12 22 0 -84 -85 -149 -120 -32 -17 -64
-28 -71 -24 -6 4 -8 3 -4 -4 8 -13 -15 -20 -67 -21 -21 0 -48 -7 -60 -16 l-21
-15 24 -1 c18 0 -1 -13 -62 -45 -49 -24 -88 -46 -88 -49 0 -4 77 28 155 65 22
10 72 28 110 40 79 25 125 49 125 65 0 11 165 115 183 115 6 0 18 7 27 15 10
9 35 19 56 22 78 12 214 102 598 398 49 38 61 43 74 33 13 -11 15 -10 9 5 -5
15 0 17 38 17 53 0 251 -36 282 -52 37 -18 276 -16 371 5 129 27 332 122 332
154 0 7 5 13 10 13 21 0 180 148 183 170 2 9 32 54 68 100 95 122 156 233 179
326 27 109 44 370 26 414 -3 8 -7 26 -9 40 -2 14 -11 42 -20 64 -21 48 -22 70
-1 36 8 -14 13 -17 10 -7 -3 10 -6 25 -6 33 0 8 -7 14 -15 14 -8 0 -15 5 -15
12 0 6 -3 8 -7 5 -8 -9 -43 22 -43 37 0 6 -13 31 -29 55 -17 25 -27 49 -24 55
3 6 2 7 -2 3 -5 -4 -14 0 -19 10 -16 27 -126 127 -171 156 -22 14 -64 48 -94
77 -29 28 -72 60 -96 70 -23 10 -53 32 -66 48 -13 17 -58 47 -99 67 -41 20
-82 40 -90 46 -8 5 -31 16 -50 24 -19 9 -65 31 -101 49 l-65 34 -425 8 c-583
10 -697 13 -749 19 -25 3 -55 1 -66 -4z m29 -98 c-7 -2 -19 -2 -25 0 -7 3 -2
5 12 5 14 0 19 -2 13 -5z"/>
<path d="M6298 5833 c6 -2 18 -2 25 0 6 3 1 5 -13 5 -14 0 -19 -2 -12 -5z"/>
<path d="M6183 5823 c9 -2 23 -2 30 0 6 3 -1 5 -18 5 -16 0 -22 -2 -12 -5z"/>
<path d="M3905 5800 l-30 -8 31 -1 c17 0 47 -3 65 -7 l34 -5 -34 15 c-18 9
-34 15 -35 15 0 -1 -14 -5 -31 -9z"/>
<path d="M2688 5773 c7 -3 16 -2 19 1 4 3 -2 6 -13 5 -11 0 -14 -3 -6 -6z"/>
<path d="M7375 5666 c45 -26 49 -26 40 3 -5 16 -15 21 -43 21 l-37 0 40 -24z"/>
<path d="M7130 5403 c-23 -10 -39 -35 -40 -65 0 -15 -5 -39 -12 -53 -10 -22
-9 -28 3 -36 8 -5 9 -9 3 -9 -7 0 -15 -16 -18 -35 -4 -19 -10 -35 -15 -35 -4
0 -8 -41 -8 -91 -1 -60 -5 -94 -13 -99 -9 -6 -9 -13 -1 -29 9 -17 9 -21 -2
-21 -8 0 -17 -11 -19 -24 -4 -17 -1 -23 9 -19 7 3 13 0 13 -6 0 -6 -11 -16
-25 -21 -16 -6 -25 -17 -25 -30 0 -12 5 -18 10 -15 6 3 10 -3 10 -14 0 -13 -6
-21 -18 -21 -9 0 -23 -9 -30 -20 -9 -15 -9 -20 0 -20 6 0 2 -9 -9 -19 -14 -13
-20 -30 -19 -53 1 -20 -4 -38 -14 -45 -12 -10 -13 -14 -1 -22 10 -6 10 -10 1
-16 -7 -4 -16 -1 -22 6 -7 10 -7 7 -3 -9 5 -16 1 -28 -13 -40 -15 -12 -23 -37
-29 -94 -8 -72 -8 -77 11 -82 15 -4 17 -8 8 -18 -8 -11 -7 -17 8 -25 12 -8 16
-19 13 -33 -4 -16 2 -23 29 -34 19 -8 43 -13 54 -11 49 10 103 12 98 4 -3 -5
2 -9 10 -9 9 0 16 -4 16 -9 0 -5 6 -11 14 -14 10 -4 12 0 9 13 -4 17 0 19 28
17 19 -1 37 -6 41 -12 4 -6 8 -2 8 8 0 9 6 17 14 17 7 0 24 11 38 25 16 16 33
23 47 20 14 -3 24 2 28 13 12 29 26 38 54 34 26 -4 29 -1 35 37 6 40 17 51 29
32 3 -5 1 -12 -5 -16 -5 -3 -10 -10 -10 -16 0 -5 9 -4 19 3 11 7 18 15 16 18
-7 11 25 50 41 50 8 0 21 15 29 32 8 20 20 33 32 33 14 0 18 7 17 32 0 17 2
30 5 29 4 -2 17 8 31 22 14 13 20 22 14 19 -6 -4 -16 5 -23 19 -10 24 -10 25
11 19 19 -6 16 0 -17 34 -25 26 -33 41 -24 41 8 0 28 -13 43 -29 18 -19 34
-27 47 -24 21 6 25 18 9 28 -5 3 -10 1 -10 -5 0 -16 -18 -3 -31 22 -10 19 -9
20 10 15 12 -3 21 0 22 6 1 7 2 19 3 27 2 21 -14 30 -53 30 -29 0 -32 2 -20
16 8 10 23 14 41 12 18 -3 28 0 28 8 0 13 -23 40 -39 46 -6 2 -6 20 -2 46 7
37 6 42 -10 42 -28 0 -49 11 -49 26 0 7 -10 19 -22 25 -21 11 -21 12 -3 25 15
11 21 11 33 1 13 -10 14 -9 4 9 -6 12 -8 24 -5 28 7 7 -9 9 -51 6 -25 -2 -28
1 -23 20 4 16 3 19 -8 10 -7 -6 -21 -7 -31 -3 -17 6 -17 5 -1 -18 10 -13 25
-24 35 -24 13 0 16 -7 14 -27 -2 -17 6 -40 19 -57 12 -16 19 -36 16 -44 -3 -8
-1 -19 3 -23 6 -6 4 -20 -4 -34 -13 -26 -3 -78 17 -92 7 -4 4 -16 -7 -32 -9
-15 -14 -31 -11 -36 3 -5 0 -20 -6 -32 -7 -13 -14 -36 -16 -53 -5 -50 -13 -76
-22 -70 -5 2 -12 -5 -15 -18 -6 -21 -85 -87 -109 -91 -26 -4 -46 -22 -44 -41
1 -12 -4 -20 -15 -20 -9 0 -28 -10 -42 -22 -14 -13 -33 -23 -40 -23 -8 0 -18
-4 -21 -10 -11 -17 -53 -11 -68 11 -11 15 -16 17 -20 7 -4 -10 -6 -10 -6 0 -1
9 -7 8 -26 -4 -14 -9 -31 -14 -38 -11 -8 3 -20 1 -27 -3 -14 -9 -51 5 -49 18
1 4 1 9 -1 12 -10 28 -5 57 21 105 21 39 27 60 20 69 -12 14 -9 39 6 57 6 8
22 41 36 74 18 43 22 62 14 67 -9 5 -8 8 2 8 8 0 11 3 8 7 -4 3 0 17 9 31 12
18 13 26 4 32 -9 5 -7 17 7 47 13 25 17 48 12 64 -5 19 -2 29 13 38 10 6 16
16 13 20 -2 5 2 28 10 52 9 24 14 48 11 55 -2 6 0 16 6 22 6 6 6 12 0 16 -5 3
-6 21 -1 43 23 111 28 157 18 164 -8 4 -8 8 -1 13 6 4 9 13 5 21 -5 15 -26 18
-53 8z m-135 -803 c3 -5 1 -10 -4 -10 -6 0 -11 5 -11 10 0 6 2 10 4 10 3 0 8
-4 11 -10z m570 -60 c4 -6 -2 -7 -16 -1 -13 4 -25 14 -27 20 -3 10 0 10 16 2
12 -6 24 -16 27 -21z m-215 -151 c0 -6 -4 -7 -10 -4 -5 3 -10 11 -10 16 0 6 5
7 10 4 6 -3 10 -11 10 -16z"/>
<path d="M7445 5190 c3 -5 13 -10 21 -10 8 0 12 5 9 10 -3 6 -13 10 -21 10 -8
0 -12 -4 -9 -10z"/>
<path d="M7930 5096 c0 -3 5 -17 12 -33 6 -15 10 -32 9 -38 -1 -5 3 -5 9 1 9
9 8 19 -4 43 -15 27 -26 39 -26 27z"/>
<path d="M5714 4518 l-19 -23 23 19 c12 11 22 21 22 23 0 8 -8 2 -26 -19z"/>
<path d="M6164 4068 l-19 -23 23 19 c12 11 22 21 22 23 0 8 -8 2 -26 -19z"/>
<path d="M7019 3923 c-13 -16 -12 -17 4 -4 9 7 17 15 17 17 0 8 -8 3 -21 -13z"/>
<path d="M6512 3900 c-58 -41 -53 -48 6 -9 59 40 57 39 45 39 -5 0 -29 -14
-51 -30z"/>
<path d="M6376 3818 c3 -5 10 -6 15 -3 13 9 11 12 -6 12 -8 0 -12 -4 -9 -9z"/>
<path d="M6120 3589 c-22 -18 -22 -19 -3 -10 12 6 25 16 28 21 9 15 3 12 -25
-11z"/>
<path d="M5854 3344 c-18 -14 -18 -15 4 -4 12 6 22 13 22 15 0 8 -5 6 -26 -11z"/>
<path d="M6309 3213 c-13 -16 -12 -17 4 -4 9 7 17 15 17 17 0 8 -8 3 -21 -13z"/>
<path d="M4190 3180 c20 -13 33 -13 25 0 -3 6 -14 10 -23 10 -15 0 -15 -2 -2
-10z"/>
<path d="M5295 3130 c-19 -8 -19 -9 2 -9 12 -1 25 4 28 9 7 12 -2 12 -30 0z"/>
<path d="M5170 3120 c-8 -5 -11 -12 -7 -16 4 -4 13 -2 19 4 15 15 7 24 -12 12z"/>
<path d="M7234 2998 l-19 -23 23 19 c12 11 22 21 22 23 0 8 -8 2 -26 -19z"/>
<path d="M5235 2889 c-15 -7 -10 -8 23 -6 61 4 56 -9 -13 -30 -23 -7 -112 -22
-134 -22 -19 -1 -22 3 -18 19 5 20 2 21 -40 14 -30 -4 -44 -3 -40 3 4 7 -11 7
-44 1 -33 -6 -68 -6 -100 1 -68 15 -75 14 -56 -7 21 -23 22 -71 2 -79 -14 -5
-109 9 -158 24 -18 5 -18 6 2 27 l20 22 -62 -2 c-34 -1 -83 -2 -109 -3 -26 0
-58 -7 -70 -15 -30 -20 -107 -36 -114 -25 -3 5 -47 9 -97 10 -51 0 -128 4
-172 8 -59 6 -84 5 -95 -5 -30 -25 -108 -37 -240 -40 -74 -1 -146 -5 -160 -10
-31 -10 -109 -11 -132 -2 -11 4 -15 13 -12 23 5 11 24 16 78 17 39 1 -8 5
-104 8 -96 3 -186 3 -200 0 l-25 -4 25 -4 c23 -4 23 -4 -9 -18 -45 -19 -186
-30 -195 -15 -4 6 -26 11 -49 10 -32 0 -37 -2 -22 -9 16 -6 8 -10 -35 -16
l-55 -9 90 -7 c160 -13 199 -13 191 1 -8 12 95 22 163 17 30 -3 57 -9 60 -15
9 -13 121 -15 436 -7 187 4 256 3 245 -5 -11 -8 -5 -9 25 -3 50 9 116 8 275
-4 162 -13 373 -15 386 -3 16 17 256 28 444 22 52 -2 180 -3 283 -1 104 1 191
-1 194 -4 4 -3 -5 -6 -18 -7 l-24 -1 25 -7 c18 -5 29 -2 41 11 14 15 32 18
130 17 63 0 132 4 154 10 50 13 132 14 140 1 3 -5 15 -6 28 -1 12 5 25 9 30
10 4 0 10 2 15 2 16 3 47 -4 52 -11 3 -4 34 -4 70 1 36 4 112 6 170 4 58 -2
233 -7 390 -10 157 -3 293 -8 302 -11 10 -3 62 -7 115 -9 54 -3 107 -6 118 -7
11 -1 32 1 47 5 22 6 30 2 45 -20 17 -25 18 -41 13 -135 -4 -77 -10 -112 -21
-123 -30 -30 -118 -55 -178 -50 -133 11 -231 13 -231 5 0 -6 -48 -8 -110 -5
-115 4 -224 30 -216 51 6 15 -34 5 -52 -13 -17 -17 -46 -17 -39 0 3 8 -2 14
-11 15 -35 2 -238 -20 -259 -29 -14 -5 -53 -5 -96 1 -47 6 -117 5 -198 -2 -68
-5 -131 -10 -139 -9 -17 1 -434 12 -465 12 -233 -1 -304 -3 -343 -11 -29 -5
-64 -5 -89 0 -23 6 -101 11 -175 13 -73 1 -138 6 -145 10 -6 4 -14 3 -18 -3
-4 -6 -25 -8 -48 -6 -141 16 -255 17 -298 2 -24 -9 -55 -16 -69 -17 -14 0 -19
-3 -12 -6 10 -4 8 -9 -8 -20 -15 -11 -32 -13 -58 -8 -30 6 -33 9 -17 15 12 4
-8 9 -55 13 -41 4 -86 9 -99 12 -13 2 -123 5 -245 6 -121 1 -250 5 -286 8 -85
8 -182 3 -175 -10 4 -5 -11 -9 -34 -9 -21 0 -41 4 -43 10 -2 6 -17 5 -41 -2
-24 -7 -41 -8 -45 -2 -10 13 -266 18 -257 4 7 -11 -17 -13 -142 -10 -57 1 -83
-2 -83 -10 0 -7 -5 -6 -15 3 -8 8 -33 16 -57 17 -71 3 -78 4 -78 13 0 4 -4 6
-9 3 -22 -14 -63 66 -51 99 4 11 5 25 2 30 -4 6 -7 15 -8 20 0 6 -2 16 -2 24
-2 9 -10 11 -29 6 -52 -12 -63 -32 -63 -106 0 -61 3 -71 30 -101 16 -18 30
-38 30 -45 0 -7 7 -13 15 -13 8 0 15 -6 15 -14 0 -18 23 -25 80 -25 100 0 160
6 173 18 12 9 16 9 19 -1 5 -14 78 -20 78 -6 0 4 -7 8 -15 8 -8 0 -15 5 -15
11 0 13 40 9 125 -15 47 -12 120 -17 325 -20 146 -2 284 -7 308 -11 35 -6 42
-5 42 9 0 20 53 22 101 2 47 -18 229 -19 282 0 41 14 77 11 77 -7 0 -6 6 -7
13 -2 18 12 80 33 97 33 12 0 12 -2 2 -9 -10 -6 -4 -10 18 -15 50 -10 168 -7
175 4 3 6 23 9 43 9 21 -1 28 -3 17 -6 -11 -3 -24 -10 -30 -15 -7 -7 18 -8 80
-3 124 10 204 12 200 4 -3 -3 28 -9 68 -13 97 -10 90 -10 191 -1 69 6 87 5 81
-5 -6 -9 -3 -9 13 -1 26 14 291 15 327 1 29 -11 56 -3 35 10 -8 5 3 10 28 15
41 7 67 1 58 -14 -3 -4 26 -3 64 2 53 7 79 6 112 -4 42 -14 113 -12 268 6 30
4 125 8 210 9 85 1 170 5 189 10 23 6 32 6 28 -1 -11 -17 23 -24 81 -17 36 4
53 3 49 -3 -7 -11 48 -23 93 -22 24 1 24 1 -5 12 l-30 12 50 5 c65 7 136 0
129 -11 -7 -12 17 -11 71 3 38 10 50 10 80 -5 36 -17 71 -14 44 4 -9 5 26 9
86 10 187 3 242 7 264 19 15 8 50 9 109 5 83 -7 89 -6 125 19 21 15 35 21 31
14 -4 -7 2 -5 14 5 39 35 53 80 50 169 -2 64 -8 94 -27 133 -13 28 -26 44 -29
37 -3 -10 -7 -9 -17 5 -7 10 -12 21 -11 24 0 3 -6 14 -14 24 -13 16 -12 17 5
14 11 -3 21 -14 23 -26 2 -11 11 -24 20 -27 9 -3 24 -9 32 -13 12 -5 13 -4 3
9 -7 8 -11 17 -8 20 3 3 -1 11 -10 18 -8 7 -15 18 -15 24 0 6 -19 24 -42 40
-55 39 -112 44 -224 18 -49 -11 -114 -24 -145 -27 -51 -6 -57 -5 -61 13 -5 18
-2 20 31 16 l36 -4 -34 11 c-25 7 -52 7 -95 0 -37 -7 -166 -10 -321 -9 -143 2
-273 -1 -288 -5 -19 -5 -27 -4 -22 3 10 16 -5 12 -92 -24 -68 -29 -82 -32 -87
-20 -10 26 -7 52 7 57 6 3 -5 6 -25 6 -29 1 -36 -2 -32 -14 7 -18 3 -18 -63
-1 -43 11 -54 12 -63 1 -16 -20 -50 -26 -50 -9 0 16 -18 18 -54 5 -19 -8 -28
-6 -38 6 -17 21 -136 12 -226 -17 -83 -26 -102 -26 -95 0 8 30 -23 26 -113
-17 -66 -32 -91 -38 -154 -40 l-75 -3 75 30 c41 17 92 36 113 42 45 13 48 28
7 28 -16 0 -30 5 -30 10 0 12 -78 12 -105 -1z m-1970 -529 c-16 -6 -12 -9 20
-12 34 -4 32 -5 -16 -6 -31 -1 -72 1 -90 5 l-34 7 35 7 c19 3 51 7 70 7 27 0
31 -1 15 -8z m3082 -26 c-3 -3 -12 -4 -19 -1 -8 3 -5 6 6 6 11 1 17 -2 13 -5z"/>
<path d="M5600 2893 c-33 -6 -51 -23 -24 -23 11 0 29 7 40 15 10 8 17 14 14
13 -3 0 -16 -3 -30 -5z"/>
<path d="M5168 2873 c6 -2 18 -2 25 0 6 3 1 5 -13 5 -14 0 -19 -2 -12 -5z"/>
<path d="M6216 2855 c7 -18 20 -19 29 -4 4 6 14 8 22 5 8 -3 11 -1 8 4 -3 6
-19 10 -35 10 -22 0 -28 -4 -24 -15z"/>
<path d="M7118 2863 c12 -2 32 -2 45 0 12 2 2 4 -23 4 -25 0 -35 -2 -22 -4z"/>
<path d="M3853 2833 c15 -2 37 -2 50 0 12 2 0 4 -28 4 -27 0 -38 -2 -22 -4z"/>
<path d="M2713 2813 c-17 -6 -16 -23 1 -23 8 0 16 7 20 15 6 15 1 17 -21 8z"/>
<path d="M2798 2773 c6 -2 18 -2 25 0 6 3 1 5 -13 5 -14 0 -19 -2 -12 -5z"/>
<path d="M2788 2743 c6 -2 18 -2 25 0 6 3 1 5 -13 5 -14 0 -19 -2 -12 -5z"/>
<path d="M3235 2740 c-7 -12 2 -12 30 0 19 8 19 9 -2 9 -12 1 -25 -3 -28 -9z"/>
<path d="M5555 2290 c-7 -12 12 -12 40 0 18 8 17 9 -7 9 -15 1 -30 -3 -33 -9z"/>
<path d="M5418 2283 c7 -3 16 -2 19 1 4 3 -2 6 -13 5 -11 0 -14 -3 -6 -6z"/>
<path d="M9099 1133 c-13 -16 -12 -17 4 -4 16 13 21 21 13 21 -2 0 -10 -8 -17
-17z"/>
<path d="M9794 438 l-19 -23 23 19 c12 11 22 21 22 23 0 8 -8 2 -26 -19z"/>
</g>
</svg>
